<svg width="501" height="472" viewBox="0 0 501 472" fill="none" xmlns="http://www.w3.org/2000/svg">
<g clip-path="url(#clip0)">
<path d="M501 241.5C501.039 272.524 494.861 303.262 482.805 332.027C482.776 332.091 482.753 332.148 482.724 332.213V332.22C474.62 351.48 463.96 369.647 451.011 386.264C448.513 389.479 445.937 392.628 443.281 395.71C442.31 396.839 441.325 397.961 440.339 399.068C435.262 404.748 429.921 410.19 424.316 415.394C423.011 416.609 421.692 417.809 420.358 418.995C420.047 419.274 419.736 419.546 419.424 419.824C412.896 425.576 406.055 430.99 398.932 436.043C394.152 439.451 389.246 442.688 384.214 445.753C383.109 446.432 381.998 447.099 380.878 447.754C378.937 448.897 376.978 450.014 375.001 451.105C372.422 452.534 369.811 453.918 367.168 455.256C366.101 455.806 365.026 456.335 363.951 456.864C362.38 457.642 360.801 458.393 359.208 459.129C358.934 459.257 358.66 459.386 358.385 459.507C357.348 459.993 356.295 460.465 355.243 460.936C341.537 467.031 327.283 471.907 312.658 475.505C312.577 475.526 312.502 475.541 312.421 475.562C311.465 475.798 310.501 476.026 309.538 476.248C308.819 476.419 308.093 476.584 307.366 476.741C307.277 476.769 307.185 476.791 307.092 476.805C305.603 477.141 304.113 477.463 302.608 477.756C301.764 477.927 300.919 478.099 300.074 478.263C299.562 478.37 299.044 478.463 298.532 478.556C297.888 478.677 297.25 478.792 296.605 478.913C296.25 478.985 295.894 479.042 295.531 479.099C294.716 479.242 293.9 479.385 293.092 479.52C291.714 479.749 290.321 479.971 288.935 480.171C287.927 480.321 286.926 480.464 285.918 480.599C284.733 480.764 283.547 480.914 282.354 481.057C282.027 481.107 281.701 481.142 281.375 481.178C280.953 481.228 280.53 481.278 280.108 481.328C279.256 481.428 278.403 481.521 277.544 481.607C277.099 481.657 276.662 481.7 276.217 481.742C275.372 481.828 274.527 481.907 273.682 481.978C272.593 482.078 271.504 482.164 270.407 482.25C269.073 482.35 267.746 482.443 266.405 482.521C265.545 482.571 264.685 482.621 263.818 482.664C261.61 482.779 259.401 482.857 257.178 482.914C256.073 482.943 254.962 482.964 253.85 482.979H253.828C252.723 482.993 251.612 483 250.5 483C239.234 483.005 227.981 482.279 216.816 480.828C208.627 479.77 200.568 478.337 192.641 476.527C192.322 476.455 192.003 476.384 191.692 476.305C190.892 476.127 190.098 475.934 189.305 475.741C188.601 475.569 187.905 475.391 187.201 475.212C169.055 470.66 151.503 464.142 134.877 455.785C134.796 455.742 134.707 455.699 134.625 455.656C134.144 455.413 133.669 455.177 133.195 454.927C132.15 454.399 131.11 453.86 130.075 453.313C124.183 450.19 118.442 446.851 112.851 443.295C111.413 442.388 109.99 441.466 108.582 440.53C108.13 440.23 107.686 439.93 107.241 439.63C106.774 439.316 106.307 439.001 105.848 438.687C104.625 437.851 103.409 437.005 102.201 436.15C97.1987 432.607 92.3443 428.889 87.6382 424.997C70.9574 411.225 56.2173 395.407 43.7933 377.947C39.4577 371.86 35.4112 365.577 31.6537 359.099C10.8304 323.16 -0.068941 282.666 0.00032812 241.5C0.00032812 108.125 112.155 0 250.5 0C388.846 0 501 108.125 501 241.5Z" fill="#6610F2"/>
<path opacity="0.2" d="M291 476C291.796 475.822 292.585 475.629 293.374 475.436C294.075 475.265 294.768 475.087 295.468 474.908C295.505 473.488 295.557 471.926 295.608 470.235C296.043 456.991 297.068 435.67 299.487 409.982C299.62 408.605 299.752 407.219 299.885 405.822C300.748 397.117 301.758 387.962 302.967 378.472C303.004 378.158 303.048 377.851 303.085 377.537C304.066 369.845 305.179 361.946 306.433 353.898C307.31 348.268 308.259 342.576 309.279 336.822C309.352 336.423 309.426 336.016 309.5 335.616C309.795 333.954 310.097 332.298 310.407 330.629C311.269 325.984 312.191 321.31 313.157 316.636C316.556 300.196 320.604 283.656 325.434 267.565C330.34 250.878 336.382 234.523 343.521 218.609C349.058 206.246 355.653 194.352 363.237 183.053C363.348 182.888 363.458 182.731 363.569 182.567C373.265 168.432 384.347 156.437 397 147.468L394.375 144C382.253 152.598 371.134 164.039 361.018 178.322C360.966 178.393 360.922 178.457 360.87 178.529C353.263 189.445 346.623 200.965 341.021 212.964C333.52 229.015 327.193 245.555 322.086 262.463C317.249 278.176 312.911 295.199 309.072 313.532C307.723 319.99 306.435 326.607 305.209 333.383C305.002 334.539 304.796 335.695 304.589 336.858C304.589 336.872 304.582 336.894 304.582 336.908C304.265 338.692 303.962 340.476 303.653 342.281C302.886 346.826 302.163 351.336 301.485 355.81C300.438 362.703 299.492 369.477 298.646 376.132C298.366 378.329 298.096 380.511 297.835 382.675C297.466 385.729 297.117 388.742 296.788 391.716C296.324 395.854 295.898 399.905 295.513 403.867L295.402 404.959C295.343 405.587 295.284 406.215 295.225 406.836C292.231 438.082 291.295 463.32 291 476Z" fill="black"/>
<path opacity="0.2" d="M348 456C348.082 455.957 348.17 455.914 348.252 455.871C349.778 455.104 351.29 454.323 352.801 453.52C353.298 447.8 353.965 441.514 354.839 434.906C355.024 433.544 355.21 432.161 355.417 430.77C355.521 430.025 355.632 429.272 355.743 428.512C356.618 422.692 357.655 416.686 358.9 410.651C363.961 386.023 372.363 360.85 386.316 345.31C387.064 344.472 387.827 343.669 388.62 342.888C390.585 340.913 392.719 339.102 395 337.476L392.362 334C389.178 336.278 386.248 338.87 383.619 341.734C382.692 342.73 381.788 343.767 380.907 344.845C368.066 360.477 360.048 383.621 355.054 406.536C353.75 412.514 352.653 418.485 351.72 424.298C351.483 425.817 351.255 427.322 351.038 428.813C349.593 438.662 348.637 447.965 348 456Z" fill="black"/>
<path opacity="0.2" d="M422.5 147C434.926 147 445 137.374 445 125.5C445 113.626 434.926 104 422.5 104C410.074 104 400 113.626 400 125.5C400 137.374 410.074 147 422.5 147Z" fill="black"/>
<path opacity="0.2" d="M415 332C427.15 332 437 322.374 437 310.5C437 298.626 427.15 289 415 289C402.85 289 393 298.626 393 310.5C393 322.374 402.85 332 415 332Z" fill="black"/>
<path opacity="0.2" d="M333.771 162.065C338.499 187.746 328.061 211 328.061 211C328.061 211 309.957 192.616 305.229 166.935C300.501 141.254 310.939 118 310.939 118C310.939 118 329.043 136.384 333.771 162.065Z" fill="black"/>
<path opacity="0.2" d="M407.934 222.985C382.529 231.925 357 226.187 357 226.187C357 226.187 372.661 205.956 398.066 197.015C423.471 188.075 449 193.813 449 193.813C449 193.813 433.339 214.044 407.934 222.985Z" fill="black"/>
<path opacity="0.2" d="M412.011 386.555C394.062 392.744 376 388.706 376 388.706C376 388.706 387.04 374.634 404.989 368.445C422.938 362.257 441 366.294 441 366.294C441 366.294 429.96 380.366 412.011 386.555Z" fill="black"/>
<path d="M326 383L327 383.345C326.902 384.056 326.664 384.494 326 383Z" fill="#2F2E41"/>
<path d="M230.5 347C297.603 347 352 294.617 352 230C352 165.383 297.603 113 230.5 113C163.397 113 109 165.383 109 230C109 294.617 163.397 347 230.5 347Z" fill="#2F2E41"/>
<path d="M241 344C281.869 344 315 312.212 315 273C315 233.788 281.869 202 241 202C200.131 202 167 233.788 167 273C167 312.212 200.131 344 241 344Z" fill="#FFB8B8"/>
<path d="M409 409.609L408.911 409.631L391.774 413.591L356.093 421.84L351.226 422.967L296.964 435.504L292.355 436.574L160.708 467C151.808 463.721 143.113 459.95 134.666 455.705C134.584 455.662 134.495 455.619 134.414 455.576C133.932 455.333 133.458 455.098 132.984 454.848C131.939 454.32 130.899 453.783 129.865 453.236C123.975 450.117 118.235 446.783 112.646 443.232C111.209 442.326 109.787 441.405 108.379 440.47C107.927 440.171 107.483 439.871 107.038 439.571C106.571 439.257 106.105 438.943 105.645 438.629C104.423 437.794 103.208 436.95 102 436.096C114.788 413.712 145.238 398.835 175.688 390.693C198.67 384.542 203.723 364.328 203.286 346.339C203.175 342.236 202.814 338.143 202.205 334.08C201.276 327.615 199.799 321.233 197.789 315L271.47 317.369L279.071 334.237C278.863 336.09 278.796 337.955 278.871 339.817C279.449 353.653 288.317 362.601 299.26 368.373C300.683 369.123 302.142 369.822 303.624 370.471C321.568 378.327 342.691 378.863 342.691 378.863C349.123 378.178 355.62 378.295 362.021 379.212C363.576 379.441 365.088 379.714 366.555 380.033C375.12 381.876 383.211 385.364 390.345 390.286C393.069 392.153 395.647 394.212 398.057 396.444C402.341 400.305 406.026 404.739 409 409.609Z" fill="#FFB8B8"/>
<path d="M420 419.203C419.689 419.484 419.378 419.757 419.068 420.038C412.55 425.83 405.721 431.282 398.61 436.371C394.5 440 389.024 443.413 384 446.5C382.898 447.184 381.703 447.504 380.586 448.164C378.647 449.315 376.691 450.44 374.718 451.538C372.143 452.977 369.536 454.371 366.898 455.719C365.832 456.273 364.759 456.805 363.686 457.338C362.118 458.122 360.542 458.878 358.951 459.619C358.677 459.748 358.404 459.878 358.13 460L355 457.474L391.758 413.785L399.15 405C399.15 405 402.102 405 408.872 409.792C412.614 412.5 416.15 415.467 419.452 418.671C419.63 418.851 419.815 419.023 420 419.203Z" fill="#FFB8B8"/>
<path d="M420 418.197C419.9 418.648 419.761 419.09 419.584 419.518C413.048 425.298 406.632 430.922 399.5 436C393.312 438.158 386.459 439.45 379.93 440.217C379.93 440.217 380.495 443.333 381 448C379.056 449.149 377.979 449.904 376 451C373.418 452.436 370.147 454.155 367.5 455.5C366.431 456.053 365.576 456.469 364.5 457C362.927 457.783 361.095 458.761 359.5 459.5C359.775 459.378 359.225 459.629 359.5 459.5C359 460 356.377 460.356 355.324 460.829C341.601 466.953 327.329 471.853 312.686 475.469C312.604 475.49 312.53 475.505 312.448 475.526C311.491 475.763 310.526 475.993 309.562 476.215C308.842 476.388 308.115 476.553 307.388 476.711C307.298 476.739 307.206 476.761 307.113 476.775C305.621 477.113 304.13 477.436 302.624 477.73C301.778 477.902 300.932 478.075 300.086 478.24C299.574 478.348 299.054 478.441 298.542 478.534C297.897 478.656 297.259 478.771 296.613 478.893C296.257 478.965 295.901 479.022 295.537 479.08C294.721 479.224 293.905 479.367 293.096 479.504C291.716 479.733 290.321 479.956 288.933 480.157C287.924 480.308 286.922 480.451 285.913 480.588C284.726 480.753 283.538 480.904 282.344 481.047C282.017 481.097 281.691 481.133 281.364 481.169C280.941 481.219 280.518 481.27 280.095 481.32C279.242 481.42 278.388 481.514 277.528 481.6C277.082 481.65 276.645 481.693 276.199 481.736C275.354 481.823 274.508 481.902 273.662 481.973C272.571 482.074 271.48 482.16 270.382 482.246C269.046 482.347 267.718 482.44 266.375 482.519C265.514 482.569 264.653 482.619 263.785 482.663C261.574 482.777 259.363 482.856 257.136 482.914C256.031 482.943 254.918 482.964 253.805 482.978H253.782C252.677 482.993 251.564 483 250.451 483C239.171 483.005 227.903 482.275 216.725 480.817C208.525 479.755 200.457 478.314 192.519 476.495C192.2 476.423 191.881 476.352 191.569 476.273C190.768 476.093 189.974 475.899 189.18 475.706C188.475 475.533 187.778 475.354 187.073 475.174C168.905 470.6 151.33 464.051 134.684 455.653C134.603 455.61 134.514 455.567 134.432 455.524C133.95 455.28 133.475 455.043 133 454.791C173.731 445.609 238.096 431.128 293.949 418.721C295.515 418.377 297.071 418.032 298.617 417.687C319.245 413.107 338.568 408.842 354.915 405.274C356.607 404.908 358.264 404.549 359.887 404.197C377.451 400.377 391.09 397.477 398.488 396.027C400.482 395.586 402.498 395.243 404.528 395L419.97 418.154L420 418.197Z" fill="#2F2E41"/>
<path d="M119.5 182C139.658 182 156 166.33 156 147C156 127.67 139.658 112 119.5 112C99.3416 112 83 127.67 83 147C83 166.33 99.3416 182 119.5 182Z" fill="#2F2E41"/>
<path d="M342.5 172C362.658 172 379 156.33 379 137C379 117.67 362.658 102 342.5 102C322.342 102 306 117.67 306 137C306 156.33 322.342 172 342.5 172Z" fill="#2F2E41"/>
<path d="M303.784 122C303.785 113.368 307.075 105.04 313.022 98.6179C318.968 92.1957 327.152 88.1317 336 87.207C330.961 86.6731 325.863 87.175 321.037 88.6801C316.212 90.1852 311.767 92.6596 307.993 95.9422C304.219 99.2248 301.201 103.242 299.134 107.732C297.068 112.221 296 117.083 296 122C296 126.917 297.068 131.779 299.134 136.268C301.201 140.758 304.219 144.775 307.993 148.058C311.767 151.34 316.212 153.815 321.037 155.32C325.863 156.825 330.961 157.327 336 156.793C327.152 155.868 318.968 151.804 313.022 145.382C307.075 138.96 303.785 130.632 303.784 122V122Z" fill="#2F2E41"/>
<path d="M78.8733 175.34C72.6443 169.224 68.9851 161.109 68.599 152.555C68.2128 144.002 71.1268 135.613 76.781 129C72.7956 132.015 69.5152 135.803 67.1537 140.118C64.7922 144.434 63.4026 149.179 63.0753 154.046C62.748 158.912 63.4904 163.79 65.2542 168.362C67.018 172.934 69.7635 177.098 73.312 180.581C76.8604 184.064 81.132 186.789 85.8486 188.579C90.5652 190.368 95.6208 191.182 100.686 190.966C105.751 190.751 110.713 189.511 115.246 187.328C119.78 185.145 123.785 182.068 127 178.297C120.011 183.6 111.231 186.231 102.348 185.685C93.4643 185.139 85.104 181.455 78.8733 175.34V175.34Z" fill="#2F2E41"/>
<path d="M231 177C187.922 177 153 196.476 153 220.5C153 231.25 160.02 241.074 171.607 248.664L186.622 238.262L182.539 254.557C184.233 255.308 185.963 256.035 187.768 256.706L210.2 231.686V262.423C217.078 263.477 224.034 264.004 231 264C274.078 264 309 244.524 309 220.5C309 196.476 274.078 177 231 177Z" fill="#2F2E41"/>
<path d="M306.332 137C306.332 137 300.68 162 336 172L306.332 137Z" fill="#2F2E41"/>
<path d="M152.926 142C152.926 142 165.889 169.639 127 182L152.926 142Z" fill="#2F2E41"/>
<path d="M172.515 301.342C175.782 300.46 176.651 293.619 174.456 286.061C172.261 278.504 167.834 273.092 164.568 273.973C161.302 274.855 160.433 281.696 162.627 289.254C164.822 296.812 169.249 302.224 172.515 301.342Z" fill="#FFB8B8"/>
<path d="M322.073 276.179C322.573 268.346 320.235 261.833 316.849 261.632C313.463 261.431 310.313 267.618 309.813 275.452C309.312 283.285 311.651 289.798 315.037 289.999C318.422 290.2 321.573 284.013 322.073 276.179Z" fill="#FFB8B8"/>
</g>
<defs>
<clipPath id="clip0">
<rect width="501" height="472" fill="white"/>
</clipPath>
</defs>
</svg>
