<svg width="645" height="704" viewBox="0 0 645 704" fill="none" xmlns="http://www.w3.org/2000/svg">
<g clip-path="url(#clip0)">
<path d="M521.169 242.191C485.882 215.732 430.614 190.709 369.536 173.539C313.924 157.905 259.683 150.357 216.791 152.285L216.568 147.282C259.97 145.333 314.775 152.944 370.884 168.717C432.531 186.048 488.398 211.366 524.159 238.18L521.169 242.191Z" fill="#CCCCCC"/>
<path d="M517.506 262.571C517.537 286.013 512.637 309.198 503.126 330.611C502.332 332.404 501.505 334.18 500.645 335.94C484.102 369.923 456.567 397.282 422.531 413.553C388.495 429.825 349.966 434.05 313.228 425.538C276.491 417.026 243.713 396.28 220.241 366.684C196.769 337.088 183.988 300.388 183.982 262.571C183.982 258.7 184.114 254.859 184.377 251.048C184.501 249.11 184.663 247.184 184.861 245.269C189.283 202.638 209.853 163.337 242.326 135.475C274.799 107.613 316.696 93.3167 359.372 95.5364C402.049 97.7561 442.247 116.322 471.672 147.404C501.097 178.485 517.504 219.71 517.506 262.571V262.571Z" fill="#6610F2"/>
<path opacity="0.1" d="M503.126 330.611C502.333 332.404 501.505 334.18 500.645 335.94C495.772 336.47 490.642 336.856 485.257 337.096C480.798 337.297 476.21 337.397 471.521 337.397C430.57 337.397 381.285 329.815 330.937 315.663C274.827 299.889 224.065 277.825 187.996 253.532C186.768 252.706 185.562 251.878 184.377 251.048C184.501 249.11 184.663 247.184 184.861 245.269C186.773 246.636 188.745 248.005 190.778 249.376C226.422 273.378 276.675 295.207 332.285 310.841C382.194 324.873 431.014 332.389 471.497 332.389C476.125 332.389 480.637 332.291 485.032 332.094C491.433 331.803 497.465 331.309 503.126 330.611Z" fill="black"/>
<path d="M471.522 333.392C430.572 333.393 381.284 325.81 330.938 311.657C274.829 295.883 224.065 273.818 187.996 249.526C151.174 224.727 133.908 200.292 139.377 180.72C144.846 161.149 172.26 149.274 216.568 147.282L216.791 152.285C196.1 153.215 179.237 156.299 166.672 161.453C154.137 166.594 146.571 173.531 144.184 182.072C141.798 190.613 144.667 200.483 152.711 211.41C160.776 222.362 173.584 233.788 190.779 245.369C226.419 269.372 276.674 291.201 332.286 306.835C382.196 320.865 431.012 328.384 471.498 328.385C476.123 328.385 480.634 328.286 485.031 328.089C505.722 327.159 522.585 324.074 535.15 318.921C547.685 313.78 555.251 306.843 557.638 298.302C561.923 282.966 548.972 263.038 521.169 242.191L524.159 238.18C538.466 248.908 549.057 259.483 555.637 269.61C562.692 280.467 564.982 290.576 562.445 299.654C556.976 319.225 529.562 331.1 485.254 333.092C480.796 333.292 476.21 333.392 471.522 333.392Z" fill="#CCCCCC"/>
<path d="M355.155 65.1465C356.211 65.1465 357.066 64.2884 357.066 63.2299C357.066 62.1713 356.211 61.3132 355.155 61.3132C354.1 61.3132 353.244 62.1713 353.244 63.2299C353.244 64.2884 354.1 65.1465 355.155 65.1465Z" fill="#F2F2F2"/>
<path d="M101.639 148.315C103.455 148.315 104.927 146.839 104.927 145.018C104.927 143.197 103.455 141.721 101.639 141.721C99.8235 141.721 98.3517 143.197 98.3517 145.018C98.3517 146.839 99.8235 148.315 101.639 148.315Z" fill="#CCCCCC"/>
<path d="M94.6324 280.584C98.2191 280.584 101.127 277.668 101.127 274.071C101.127 270.473 98.2191 267.557 94.6324 267.557C91.0457 267.557 88.1381 270.473 88.1381 274.071C88.1381 277.668 91.0457 280.584 94.6324 280.584Z" fill="#CCCCCC"/>
<path d="M484.461 79.0708C486.852 79.0708 488.79 77.1272 488.79 74.7296C488.79 72.3321 486.852 70.3884 484.461 70.3884C482.071 70.3884 480.133 72.3321 480.133 74.7296C480.133 77.1272 482.071 79.0708 484.461 79.0708Z" fill="#CCCCCC"/>
<path d="M637.972 261.953C641.854 261.953 645 258.797 645 254.904C645 251.012 641.854 247.856 637.972 247.856C634.091 247.856 630.945 251.012 630.945 254.904C630.945 258.797 634.091 261.953 637.972 261.953Z" fill="#CCCCCC"/>
<path d="M583.021 145.354C584.686 145.354 586.036 144 586.036 142.33C586.036 140.66 584.686 139.306 583.021 139.306C581.356 139.306 580.006 140.66 580.006 142.33C580.006 144 581.356 145.354 583.021 145.354Z" fill="#CCCCCC"/>
<path d="M216.932 108.197C219.529 108.197 221.635 106.084 221.635 103.479C221.635 100.873 219.529 98.7612 216.932 98.7612C214.334 98.7612 212.228 100.873 212.228 103.479C212.228 106.084 214.334 108.197 216.932 108.197Z" fill="#CCCCCC"/>
<path d="M572.468 243.637C574.133 243.637 575.483 242.283 575.483 240.612C575.483 238.942 574.133 237.588 572.468 237.588C570.803 237.588 569.453 238.942 569.453 240.612C569.453 242.283 570.803 243.637 572.468 243.637Z" fill="#CCCCCC"/>
<path d="M109.92 369.832C111.992 369.832 113.673 368.147 113.673 366.069C113.673 363.99 111.992 362.305 109.92 362.305C107.847 362.305 106.167 363.99 106.167 366.069C106.167 368.147 107.847 369.832 109.92 369.832Z" fill="#CCCCCC"/>
<path d="M185.72 422.532C187.964 422.532 189.784 420.708 189.784 418.456C189.784 416.205 187.964 414.38 185.72 414.38C183.475 414.38 181.656 416.205 181.656 418.456C181.656 420.708 183.475 422.532 185.72 422.532Z" fill="#CCCCCC"/>
<path d="M303.86 8.04372H295.84V0H291.538V8.04372H283.514V12.3628H291.538V20.4065H295.84V12.3628H303.86V8.04372Z" fill="#CCCCCC"/>
<path d="M489.893 443.283H484.855V438.233H482.154V443.283H477.119V445.994H482.154V451.044H484.855V445.994H489.893V443.283Z" fill="#CCCCCC"/>
<path d="M606.121 417.431H602.357V413.655H600.336V417.431H596.571V419.458H600.336V423.234H602.357V419.458H606.121V417.431Z" fill="#CCCCCC"/>
<path opacity="0.1" d="M353.244 145.657C360.984 145.657 367.258 139.364 367.258 131.601C367.258 123.839 360.984 117.546 353.244 117.546C345.505 117.546 339.231 123.839 339.231 131.601C339.231 139.364 345.505 145.657 353.244 145.657Z" fill="black"/>
<path opacity="0.1" d="M245.596 248.516C253.335 248.516 259.609 242.223 259.609 234.461C259.609 226.698 253.335 220.405 245.596 220.405C237.856 220.405 231.582 226.698 231.582 234.461C231.582 242.223 237.856 248.516 245.596 248.516Z" fill="black"/>
<path opacity="0.1" d="M400.381 389.707C408.12 389.707 414.394 383.414 414.394 375.652C414.394 367.889 408.12 361.597 400.381 361.597C392.641 361.597 386.367 367.889 386.367 375.652C386.367 383.414 392.641 389.707 400.381 389.707Z" fill="black"/>
<path opacity="0.1" d="M353.244 270.237C360.984 270.237 367.258 263.945 367.258 256.182C367.258 248.42 360.984 242.127 353.244 242.127C345.505 242.127 339.231 248.42 339.231 256.182C339.231 263.945 345.505 270.237 353.244 270.237Z" fill="black"/>
<path opacity="0.1" d="M252.602 347.541C260.342 347.541 266.616 341.248 266.616 333.486C266.616 325.723 260.342 319.431 252.602 319.431C244.863 319.431 238.589 325.723 238.589 333.486C238.589 341.248 244.863 347.541 252.602 347.541Z" fill="black"/>
<path opacity="0.1" d="M428.408 194.85C436.147 194.85 442.421 188.557 442.421 180.795C442.421 173.032 436.147 166.74 428.408 166.74C420.668 166.74 414.394 173.032 414.394 180.795C414.394 188.557 420.668 194.85 428.408 194.85Z" fill="black"/>
<path opacity="0.1" d="M474.907 290.043C482.646 290.043 488.92 283.75 488.92 275.987C488.92 268.225 482.646 261.932 474.907 261.932C467.167 261.932 460.893 268.225 460.893 275.987C460.893 283.75 467.167 290.043 474.907 290.043Z" fill="black"/>
<path d="M353.245 213.378C363.447 213.378 371.717 205.083 371.717 194.85C371.717 184.618 363.447 176.323 353.245 176.323C343.043 176.323 334.772 184.618 334.772 194.85C334.772 205.083 343.043 213.378 353.245 213.378Z" fill="white"/>
<path d="M353.245 168.017C346.318 168.017 339.676 170.777 334.778 175.689C329.88 180.602 327.129 187.264 327.129 194.211C327.129 208.678 353.245 256.182 353.245 256.182C353.245 256.182 379.361 208.678 379.361 194.211C379.361 187.264 376.609 180.602 371.711 175.689C366.814 170.777 360.171 168.017 353.245 168.017ZM353.245 206.989C350.851 206.989 348.511 206.277 346.521 204.943C344.531 203.609 342.979 201.713 342.063 199.495C341.147 197.277 340.908 194.837 341.375 192.482C341.842 190.127 342.994 187.964 344.687 186.267C346.379 184.569 348.536 183.413 350.884 182.945C353.231 182.476 355.665 182.717 357.876 183.635C360.088 184.554 361.978 186.11 363.308 188.106C364.637 190.102 365.347 192.449 365.347 194.85C365.347 196.444 365.034 198.023 364.426 199.495C363.818 200.968 362.926 202.306 361.802 203.433C360.679 204.561 359.344 205.455 357.876 206.065C356.408 206.675 354.834 206.989 353.245 206.989Z" fill="#CCCCCC"/>
<path d="M252.602 292.598C262.804 292.598 271.075 284.303 271.075 274.071C271.075 263.838 262.804 255.543 252.602 255.543C242.4 255.543 234.13 263.838 234.13 274.071C234.13 284.303 242.4 292.598 252.602 292.598Z" fill="white"/>
<path d="M252.602 247.238C245.676 247.238 239.033 249.997 234.136 254.91C229.238 259.822 226.486 266.485 226.486 273.432C226.486 287.898 252.602 335.402 252.602 335.402C252.602 335.402 278.718 287.898 278.718 273.432C278.718 269.992 278.043 266.586 276.73 263.408C275.418 260.23 273.494 257.342 271.069 254.91C268.644 252.477 265.765 250.548 262.597 249.232C259.428 247.915 256.032 247.238 252.602 247.238ZM252.602 286.209C250.209 286.209 247.869 285.497 245.879 284.163C243.888 282.83 242.337 280.934 241.421 278.716C240.505 276.498 240.265 274.057 240.732 271.702C241.199 269.348 242.352 267.185 244.045 265.487C245.737 263.79 247.894 262.633 250.241 262.165C252.589 261.697 255.022 261.937 257.234 262.856C259.445 263.775 261.335 265.33 262.665 267.327C263.995 269.323 264.705 271.67 264.705 274.071C264.705 275.665 264.392 277.243 263.784 278.716C263.175 280.189 262.284 281.527 261.16 282.654C260.036 283.781 258.702 284.675 257.234 285.285C255.765 285.895 254.192 286.209 252.602 286.209Z" fill="#CCCCCC"/>
<path d="M474.907 235.099C485.109 235.099 493.379 226.804 493.379 216.572C493.379 206.339 485.109 198.044 474.907 198.044C464.705 198.044 456.435 206.339 456.435 216.572C456.435 226.804 464.705 235.099 474.907 235.099Z" fill="white"/>
<path d="M474.907 189.739C471.477 189.739 468.081 190.417 464.913 191.733C461.744 193.049 458.865 194.979 456.44 197.411C454.015 199.843 452.091 202.731 450.779 205.909C449.466 209.087 448.791 212.493 448.791 215.933C448.791 230.399 474.907 277.904 474.907 277.904C474.907 277.904 501.023 230.399 501.023 215.933C501.023 212.493 500.347 209.087 499.035 205.909C497.722 202.731 495.799 199.843 493.374 197.411C490.949 194.979 488.07 193.049 484.901 191.733C481.732 190.417 478.336 189.739 474.907 189.739ZM474.907 228.71C472.513 228.71 470.173 227.998 468.183 226.665C466.193 225.331 464.642 223.435 463.726 221.217C462.81 218.999 462.57 216.558 463.037 214.204C463.504 211.849 464.657 209.686 466.349 207.988C468.042 206.291 470.198 205.135 472.546 204.666C474.893 204.198 477.327 204.438 479.538 205.357C481.75 206.276 483.64 207.832 484.97 209.828C486.3 211.824 487.009 214.171 487.009 216.572C487.009 218.166 486.696 219.744 486.088 221.217C485.48 222.69 484.588 224.028 483.465 225.155C482.341 226.282 481.007 227.176 479.538 227.786C478.07 228.396 476.496 228.71 474.907 228.71Z" fill="#CCCCCC"/>
<path d="M353.245 88.797C363.447 88.797 371.717 80.502 371.717 70.2696C371.717 60.0372 363.447 51.7422 353.245 51.7422C343.043 51.7422 334.772 60.0372 334.772 70.2696C334.772 80.502 343.043 88.797 353.245 88.797Z" fill="white"/>
<path d="M353.245 43.4368C346.318 43.4368 339.676 46.1965 334.778 51.1088C329.88 56.0211 327.129 62.6836 327.129 69.6306C327.129 84.0971 353.245 131.601 353.245 131.601C353.245 131.601 379.361 84.0971 379.361 69.6306C379.361 62.6836 376.609 56.021 371.711 51.1088C366.814 46.1965 360.171 43.4368 353.245 43.4368ZM353.245 82.4081C350.851 82.4081 348.511 81.6962 346.521 80.3624C344.531 79.0286 342.979 77.1328 342.063 74.9147C341.147 72.6967 340.908 70.256 341.375 67.9013C341.842 65.5467 342.994 63.3838 344.687 61.6861C346.379 59.9885 348.536 58.8324 350.884 58.3641C353.231 57.8957 355.665 58.1361 357.876 59.0548C360.088 59.9736 361.978 61.5294 363.308 63.5256C364.637 65.5218 365.347 67.8687 365.347 70.2695C365.347 71.8636 365.034 73.442 364.426 74.9148C363.818 76.3875 362.926 77.7257 361.802 78.8528C360.679 79.98 359.344 80.8741 357.876 81.4842C356.408 82.0942 354.834 82.4081 353.245 82.4081Z" fill="#CCCCCC"/>
<path d="M400.381 334.764C410.583 334.764 418.853 326.469 418.853 316.236C418.853 306.004 410.583 297.709 400.381 297.709C390.179 297.709 381.908 306.004 381.908 316.236C381.908 326.469 390.179 334.764 400.381 334.764Z" fill="white"/>
<path d="M400.381 289.404C393.454 289.404 386.812 292.163 381.914 297.076C377.016 301.988 374.265 308.651 374.265 315.598C374.265 330.064 400.381 377.568 400.381 377.568C400.381 377.568 426.497 330.064 426.497 315.598C426.497 312.158 425.821 308.752 424.509 305.574C423.196 302.396 421.273 299.508 418.847 297.076C416.422 294.643 413.543 292.714 410.375 291.398C407.206 290.081 403.81 289.404 400.381 289.404ZM400.381 328.375C397.987 328.375 395.647 327.663 393.657 326.329C391.667 324.996 390.115 323.1 389.199 320.882C388.283 318.664 388.044 316.223 388.511 313.868C388.978 311.514 390.13 309.351 391.823 307.653C393.516 305.956 395.672 304.799 398.02 304.331C400.367 303.863 402.801 304.103 405.012 305.022C407.224 305.941 409.114 307.496 410.444 309.493C411.773 311.489 412.483 313.836 412.483 316.237C412.483 317.831 412.17 319.409 411.562 320.882C410.954 322.355 410.062 323.693 408.939 324.82C407.815 325.947 406.48 326.841 405.012 327.451C403.544 328.061 401.97 328.375 400.381 328.375Z" fill="#3F3D56"/>
<path d="M245.596 192.295C255.798 192.295 264.068 184 264.068 173.767C264.068 163.535 255.798 155.24 245.596 155.24C235.394 155.24 227.123 163.535 227.123 173.767C227.123 184 235.394 192.295 245.596 192.295Z" fill="white"/>
<path d="M245.596 146.935C238.669 146.935 232.027 149.694 227.129 154.607C222.231 159.519 219.48 166.181 219.48 173.128C219.48 187.595 245.596 235.099 245.596 235.099C245.596 235.099 271.712 187.595 271.712 173.128C271.712 166.181 268.96 159.519 264.062 154.607C259.165 149.694 252.522 146.935 245.596 146.935ZM245.596 185.906C243.202 185.906 240.862 185.194 238.872 183.86C236.882 182.526 235.33 180.631 234.414 178.413C233.498 176.194 233.259 173.754 233.726 171.399C234.193 169.044 235.345 166.882 237.038 165.184C238.73 163.486 240.887 162.33 243.235 161.862C245.582 161.394 248.016 161.634 250.227 162.553C252.439 163.471 254.329 165.027 255.659 167.023C256.988 169.02 257.698 171.366 257.698 173.767C257.698 175.361 257.385 176.94 256.777 178.413C256.169 179.885 255.277 181.223 254.153 182.351C253.03 183.478 251.695 184.372 250.227 184.982C248.759 185.592 247.185 185.906 245.596 185.906Z" fill="#3F3D56"/>
<path d="M428.408 140.546C438.61 140.546 446.88 132.251 446.88 122.018C446.88 111.786 438.61 103.491 428.408 103.491C418.206 103.491 409.935 111.786 409.935 122.018C409.935 132.251 418.206 140.546 428.408 140.546Z" fill="white"/>
<path d="M428.407 95.1855C421.481 95.1855 414.838 97.9453 409.941 102.858C405.043 107.77 402.292 114.432 402.292 121.379C402.292 135.846 428.407 183.35 428.407 183.35C428.407 183.35 454.523 135.846 454.523 121.379C454.523 114.432 451.772 107.77 446.874 102.858C441.977 97.9452 435.334 95.1855 428.407 95.1855ZM428.407 134.157C426.014 134.157 423.674 133.445 421.684 132.111C419.693 130.777 418.142 128.882 417.226 126.664C416.31 124.445 416.071 122.005 416.537 119.65C417.004 117.295 418.157 115.133 419.85 113.435C421.542 111.737 423.699 110.581 426.046 110.113C428.394 109.644 430.827 109.885 433.039 110.804C435.25 111.722 437.141 113.278 438.47 115.274C439.8 117.271 440.51 119.617 440.51 122.018C440.51 125.238 439.235 128.325 436.965 130.602C434.696 132.878 431.617 134.157 428.407 134.157V134.157Z" fill="#3F3D56"/>
<path d="M41.7229 704H-328.793C-329.113 704 -329.42 703.873 -329.647 703.646C-329.873 703.418 -330 703.111 -330 702.79C-330 702.469 -329.873 702.161 -329.647 701.934C-329.42 701.707 -329.113 701.579 -328.793 701.579H41.7229C42.043 701.579 42.35 701.707 42.5763 701.934C42.8026 702.161 42.9298 702.469 42.9298 702.79C42.9298 703.111 42.8026 703.418 42.5763 703.646C42.35 703.873 42.043 704 41.7229 704Z" fill="#3F3D56"/>
</g>
<defs>
<clipPath id="clip0">
<rect width="975" height="704" fill="white" transform="translate(-330)"/>
</clipPath>
</defs>
</svg>
